<svg width="40" height="29" viewBox="0 0 40 29" fill="none" xmlns="http://www.w3.org/2000/svg">
<path fill-rule="evenodd" clip-rule="evenodd" d="M20.2562 17.2722C23.3272 17.2695 26.2733 18.4872 28.4461 20.6573L26.6771 22.4263C23.0828 18.9985 17.4297 18.9985 13.8354 22.4263L12.0227 20.6573C14.2006 18.4681 17.1683 17.248 20.2562 17.2722ZM6.23514 14.8261L8.00416 16.5951C14.7739 9.83604 25.7386 9.83604 32.5083 16.5951L34.2773 14.8261C26.5333 7.08338 13.9792 7.08338 6.23514 14.8261ZM20.3218 0.957837C12.9455 0.942699 5.869 3.87552 0.666016 9.10411L2.43503 10.9823C12.3199 1.09835 28.3455 1.09835 38.2303 10.9823L39.9993 9.21331C34.8091 3.93925 27.7214 0.965714 20.3218 0.957837ZM17.2642 25.9425L20.1907 28.8691L23.1172 25.9425C21.4985 24.3322 18.8829 24.3322 17.2642 25.9425Z" fill="black"/>
</svg>
