<svg width="24" height="32" viewBox="0 0 24 32" fill="none" xmlns="http://www.w3.org/2000/svg">
<path fill-rule="evenodd" clip-rule="evenodd" d="M4 0V23H21V0H4ZM19.625 21.4667H5.375V1.40556H19.625V21.4667Z" fill="black"/>
<path d="M0 29.0361C0 30.755 0.864897 32 2.58646 32C3.93734 32 4.9258 31.1727 4.9258 29.9518C4.9258 28.7068 3.93734 27.9116 2.80886 27.9116C2.15812 27.9116 1.77098 28.1205 1.44973 28.4659H1.42502C1.48268 27.5341 1.8863 27.012 2.61117 27.012C3.09716 27.012 3.29485 27.245 3.36898 27.5422H4.76105C4.5716 26.6104 3.83026 26 2.58646 26C1.73803 26 1.13672 26.2651 0.708392 26.747C0.205928 27.3012 0 28.0884 0 29.0361ZM3.5502 29.9598C3.5502 30.5141 3.13011 30.9558 2.53703 30.9558C1.91925 30.9558 1.50739 30.5382 1.50739 29.9598C1.50739 29.3815 1.90277 28.9478 2.53703 28.9478C3.13834 28.9478 3.5502 29.3815 3.5502 29.9598Z" fill="black"/>
<path d="M6.61917 28.1767V31.8635H8.0689V26.0884H6.9157C6.7592 26.8594 6.14965 27.2048 5.36713 27.2369V28.1767H6.61917Z" fill="black"/>
<path d="M10.1515 28.1767V31.8635H11.6012V26.0884H10.448C10.2915 26.8594 9.68196 27.2048 8.89943 27.2369V28.1767H10.1515Z" fill="black"/>
<path d="M12.3988 29.0361C12.3988 30.755 13.2637 32 14.9852 32C16.3361 32 17.3246 31.1727 17.3246 29.9518C17.3246 28.7068 16.3361 27.9116 15.2077 27.9116C14.5569 27.9116 14.1698 28.1205 13.8485 28.4659H13.8238C13.8815 27.5341 14.2851 27.012 15.01 27.012C15.4959 27.012 15.6936 27.245 15.7678 27.5422H17.1598C16.9704 26.6104 16.2291 26 14.9852 26C14.1368 26 13.5355 26.2651 13.1072 26.747C12.6047 27.3012 12.3988 28.0884 12.3988 29.0361ZM15.949 29.9598C15.949 30.5141 15.5289 30.9558 14.9358 30.9558C14.318 30.9558 13.9062 30.5382 13.9062 29.9598C13.9062 29.3815 14.3016 28.9478 14.9358 28.9478C15.5371 28.9478 15.949 29.3815 15.949 29.9598Z" fill="black"/>
<path d="M19.018 28.1767V31.8635H20.4677V26.0884H19.3145C19.158 26.8594 18.5484 27.2048 17.7659 27.2369V28.1767H19.018Z" fill="black"/>
<path d="M22.5503 28.1767V31.8635H24V26.0884H22.8468C22.6903 26.8594 22.0808 27.2048 21.2982 27.2369V28.1767H22.5503Z" fill="black"/>
</svg>
