<svg width="64" height="64" viewBox="0 0 64 64" fill="none" xmlns="http://www.w3.org/2000/svg">
<path fill-rule="evenodd" clip-rule="evenodd" d="M31.9297 0C14.191 0 0 14.191 0 31.9297C0 37.9608 1.77387 43.992 4.96684 48.9589L1.06432 63.5046L15.2553 59.2473C30.1558 68.4714 50.0232 63.8594 59.2473 48.9589C68.4714 34.0583 63.8594 14.191 48.9589 4.96684C43.6372 1.77387 37.9608 0 31.9297 0ZM31.9297 59.9569C26.2533 59.9569 20.5769 58.183 15.6101 54.99C15.2553 54.99 6.03116 57.8282 6.74071 57.8282C6.74071 57.4734 9.22413 49.3136 9.22413 48.6041C5.67639 43.992 3.90252 37.9609 3.90252 32.2845C3.90252 17.0292 16.3196 4.25729 31.9297 4.25729C47.5398 4.25729 59.9569 16.6744 59.9569 32.2845C59.9569 47.8945 47.185 59.9569 31.9297 59.9569ZM35.8322 46.1207C35.8322 48.2493 34.0583 49.6684 32.2845 49.6684C30.1558 49.6684 28.7367 47.8945 28.7367 46.1207C28.7367 43.992 30.5106 42.5729 32.2845 42.5729C34.0583 42.5729 35.8322 43.992 35.8322 46.1207ZM41.8634 24.1247C41.8634 28.0272 40.4443 29.0915 38.3156 31.2201C35.8322 33.3488 34.7679 34.7679 34.7679 38.3156H30.1558C30.1558 35.8322 30.5106 33.3488 31.9297 31.2201C34.0583 28.7367 36.8965 28.0272 36.8965 24.4794C36.8965 21.6412 34.7679 19.8674 32.6392 19.8674C29.0915 19.8674 27.6724 22.3508 27.6724 26.2533H22.7056C22.7056 19.8674 26.9629 15.9648 32.6392 15.9648C37.9609 15.9648 41.8634 19.1578 41.8634 24.1247Z" fill="black"/>
</svg>
