<svg width="29" height="39" viewBox="0 0 29 39" fill="none" xmlns="http://www.w3.org/2000/svg">
<path fill-rule="evenodd" clip-rule="evenodd" d="M27.2234 17.3719L27.8731 17.0245C28.4491 16.6372 28.8467 16.0352 28.9777 15.3525C29.0651 14.7052 28.8938 14.0496 28.5012 13.5284C28.0992 12.923 27.4632 12.5137 26.747 12.3992L26.9419 12.2689C27.514 11.8922 27.9131 11.3027 28.0512 10.6306C28.1894 9.95843 28.0552 9.25879 27.6782 8.68597C27.1534 7.88514 26.2238 7.44852 25.2743 7.55679V0H8.07823V12.7467C6.90648 11.6807 5.27336 11.2877 3.74674 11.7043C3.22093 11.9373 2.80906 12.3703 2.60188 12.908C2.3947 13.4456 2.40921 14.0438 2.64221 14.5707C2.77215 15.1353 2.94541 15.6999 3.09702 16.2862C3.45058 17.393 3.71848 18.5256 3.89834 19.6737C4.00663 20.7713 4.00663 21.8768 3.89834 22.9744V24.2773C3.89963 25.7357 4.04471 27.1905 4.33149 28.6203L0 36.1336L1.55934 37.0457L6.04243 29.4889C6.16573 29.2164 6.225 28.9193 6.21569 28.6203L6.04243 27.73C5.79409 26.5967 5.68499 25.4371 5.71757 24.2773V23.1047C5.88014 21.9232 5.88014 20.7249 5.71757 19.5434C5.50308 18.318 5.21377 17.1069 4.85127 15.917L4.33149 14.1581C4.33149 13.8541 4.20155 13.4633 4.33149 13.3764C5.43604 13.2257 6.53612 13.6819 7.21193 14.5707C7.59568 15.2864 7.84526 16.0665 7.94829 16.8725V27.5779H20.5096C20.1254 29.975 18.212 31.8316 15.8099 32.1381H15.4201L14.5105 33.7667C14.04 34.5158 13.6273 35.2998 13.276 36.1119C13.0161 36.6331 12.7562 37.2194 12.2581 38.1097L13.8391 39C14.2338 38.297 14.5881 37.572 14.9003 36.8285C15.2427 36.0799 15.6333 35.3546 16.0698 34.657L16.6113 33.6798C19.6684 33.0744 21.9819 30.5527 22.3288 27.4477H25.2743V27.2957C26.2974 26.954 27.1504 26.2309 27.6566 25.2762C28.1106 24.506 28.1106 23.5491 27.6566 22.779C27.4371 22.4718 27.1569 22.2131 26.8336 22.0189L27.2667 21.7366C27.8525 21.3693 28.2543 20.769 28.3713 20.0863C28.5221 19.4048 28.3891 18.6912 28.0031 18.1102C27.7932 17.816 27.5284 17.5652 27.2234 17.3719ZM25.4042 9.27227H25.5125C25.955 9.27227 26.3138 9.63199 26.3138 10.0757C26.309 10.3472 26.1713 10.5989 25.9456 10.7489L23.3901 12.3775C23.0252 12.6294 22.5259 12.537 22.2747 12.1712C22.0235 11.8054 22.1156 11.3047 22.4804 11.0529L24.9277 9.42428C25.0676 9.32656 25.2337 9.27357 25.4042 9.27227ZM23.5417 1.71548V8.22996L21.3759 9.59799C20.1895 10.4061 19.8627 12.0156 20.6396 13.2244C21.042 13.8254 21.6793 14.2277 22.3938 14.3318L22.1989 14.4621C21.0901 15.3064 20.8418 16.8767 21.6358 18.0234C21.8457 18.3177 22.1105 18.5684 22.4155 18.7617L21.874 19.1091C21.3324 19.4778 20.9465 20.0349 20.7912 20.6726H9.96243L9.81083 1.71548H23.5417ZM22.2422 24.2773C22.026 24.7846 21.9804 25.3486 22.1123 25.8842H9.81083V22.4098H14.8787V24.147H18.3222V22.4098H20.9428L21.181 22.8875C21.5125 23.3452 21.9965 23.6688 22.5454 23.7996C22.4371 23.9516 22.3288 24.1036 22.2422 24.2773ZM25.9889 24.6247C25.6597 25.2339 25.0828 25.6697 24.4079 25.819C24.2007 25.8586 23.9894 25.7739 23.8665 25.6019C23.7582 25.4138 23.7582 25.182 23.8665 24.9939C24.0185 24.6672 24.2493 24.3836 24.5379 24.1687C24.7816 23.9289 25.0785 23.7504 25.4042 23.6475C25.6342 23.6041 25.867 23.7079 25.9889 23.9081C26.1127 24.1231 26.1127 24.388 25.9889 24.603V24.6247ZM26.2705 20.2817L23.8232 22.0189C23.6262 22.0836 23.4138 22.0836 23.2168 22.0189C22.9007 21.953 22.6549 21.7032 22.5934 21.3854C22.5319 21.0675 22.6667 20.7437 22.9352 20.564L25.3825 18.9354C25.5109 18.85 25.6616 18.8047 25.8157 18.8051C26.0824 18.805 26.3326 18.9345 26.4871 19.1526C26.6149 19.3274 26.6622 19.5486 26.617 19.7606C26.5653 19.9635 26.4423 20.1409 26.2705 20.26V20.2817ZM26.6603 15.5913L24.213 17.3285C23.8353 17.5691 23.335 17.463 23.0868 17.0896C22.849 16.7176 22.9554 16.2228 23.3251 15.9822L25.7074 14.397C26.0575 14.1329 26.5526 14.1902 26.8336 14.5273C27.057 14.8739 26.9821 15.3339 26.6603 15.5913Z" fill="black"/>
</svg>
