<svg width="34" height="40" viewBox="0 0 34 40" fill="none" xmlns="http://www.w3.org/2000/svg">
<path fill-rule="evenodd" clip-rule="evenodd" d="M33.1197 22.8143C33.1261 27.2023 31.3797 31.4112 28.2684 34.5055L26.3235 32.5606C28.906 29.9755 30.3529 26.4684 30.3444 22.8143H33.1197ZM6.89637 32.5606C3.05527 28.725 1.84069 22.9835 3.79946 17.9209C5.75824 12.8584 10.521 9.42957 15.9434 9.17817L11.2669 13.7673L13.2118 15.734L21.0788 7.867L13.2118 0L11.2669 1.9449L15.6375 6.31546C8.83879 6.67978 2.95986 11.1776 0.829988 17.6444C-1.29989 24.1111 0.755542 31.2222 6.00709 35.5554C11.2586 39.8885 18.6306 40.5562 24.5753 37.2371L23.2204 34.7896C17.8671 37.7619 11.1959 36.8547 6.83082 32.5606H6.89637Z" fill="black"/>
</svg>
