<svg width="40" height="40" viewBox="0 0 40 40" fill="none" xmlns="http://www.w3.org/2000/svg">
<path fill-rule="evenodd" clip-rule="evenodd" d="M16.8364 20.1126L14.0962 17.3812L15.8225 15.6614L16.8364 16.6732L19.8782 13.6423L21.6023 15.362L16.8364 20.1126ZM34.39 15.2308H24.0249V17.663H34.39V15.2308ZM21.6023 22.7917L19.8782 21.0719L16.8364 24.1028L15.8225 23.091L14.0962 24.8108L16.8364 27.5423L21.6023 22.7917ZM34.39 22.6611H24.0249V25.0934H34.39V22.6611ZM21.6023 30.2213L19.8782 28.5016L16.8364 31.5324L15.8225 30.5207L14.0962 32.2404L16.8364 34.9741L21.6023 30.2213ZM34.39 30.0913H24.0249V32.5236H34.39V30.0913ZM39.9993 8.58823V40H8.48727V32.0784H0.666016V0.666672H32.1773V8.58823H39.9993ZM8.48727 8.58823H29.7372V3.099H3.10608V29.6461H8.48727V8.58823ZM37.5593 11.0206H10.9273V37.5677H37.5593V11.0206Z" fill="black"/>
</svg>
