<svg width="40" height="40" viewBox="0 0 40 40" fill="none" xmlns="http://www.w3.org/2000/svg">
<path fill-rule="evenodd" clip-rule="evenodd" d="M20.3327 0.666672C9.47108 0.666672 0.666016 9.47174 0.666016 20.3333C0.666016 31.1949 9.47108 40 20.3327 40C31.1943 40 39.9993 31.1949 39.9993 20.3333C39.9993 15.1174 37.9273 10.1151 34.2391 6.4269C30.5509 2.73869 25.5486 0.666672 20.3327 0.666672ZM20.3327 37.5307C13.3662 37.5307 7.08601 33.333 4.42208 26.896C1.75815 20.4589 3.23537 13.0509 8.16457 8.1279C13.0938 3.20495 20.5037 1.73715 26.9374 4.40925C33.371 7.08135 37.5608 13.3668 37.552 20.3333C37.5279 29.8297 29.8291 37.5187 20.3327 37.5307ZM29.2919 12.4885L31.0401 14.2367L17.0549 28.2219L9.62527 20.7704L11.3734 19.0222L17.0549 24.7256L29.2919 12.4885Z" fill="black"/>
</svg>
