<svg width="26" height="40" viewBox="0 0 26 40" fill="none" xmlns="http://www.w3.org/2000/svg">
<path fill-rule="evenodd" clip-rule="evenodd" d="M0.916016 0.666748V40H25.4993V0.666748H0.916016ZM23.041 37.5417H3.37435V33.8542H10.7493V36.3125H15.666V33.8542H23.041V37.5417ZM23.041 31.3959H3.37435V9.2709H23.041V31.3959ZM23.041 6.81257H3.37435V3.12508H23.041V6.81257ZM8.68685 25.9393H5.9607V14.9248H8.68685V25.9393ZM17.3086 25.6854C17.842 25.5262 18.3428 25.2733 18.7875 24.9385C19.4099 24.4563 19.8978 23.8221 20.2044 23.0969C20.5461 22.2752 20.714 21.3917 20.6973 20.502C20.707 19.7211 20.5821 18.9443 20.3282 18.2058C20.1039 17.5561 19.7495 16.9589 19.2868 16.4506C18.8369 15.9652 18.2882 15.5817 17.6778 15.326C17.0188 15.0522 16.3108 14.9157 15.5972 14.9248H10.8992V25.9393H15.4286C16.0643 25.9476 16.6978 25.862 17.3086 25.6854ZM13.6265 23.6453V17.205H15.2589C16.0273 17.162 16.7686 17.495 17.2467 18.098C17.7405 18.7991 17.9847 19.6456 17.9403 20.502C17.9966 21.3352 17.7562 22.1615 17.2617 22.8344C16.7441 23.4024 15.9944 23.7013 15.228 23.6453H13.6265Z" fill="black"/>
</svg>
