<svg width="38" height="40" viewBox="0 0 38 40" fill="none" xmlns="http://www.w3.org/2000/svg">
<path fill-rule="evenodd" clip-rule="evenodd" d="M20.0389 12.956V40H37.2666V12.956H20.0389ZM26.2041 37.5514H22.5093V35.0809H26.2041V37.5514ZM34.7961 37.5514H31.1669V35.0809H34.7961V37.5514ZM34.7961 32.6323H22.5093V20.3237H34.7961V32.6323ZM34.7961 17.8751H22.5093V15.4046H34.7961V17.8751ZM24.63 10.4855C24.1703 8.16907 23.3122 5.94991 22.094 3.92676C25.5527 5.02836 28.486 7.36255 30.3361 10.4855H33.1127C29.4515 2.78697 20.705 -1.06993 12.5515 1.41876C4.39806 3.90746 -0.703743 11.9913 0.558244 20.4222C1.82023 28.8531 9.06546 35.0887 17.5903 35.0809V32.6323C15.5571 32.6323 12.5619 27.2541 12.2777 19.0994H17.5903V16.6289H12.2777C12.5619 8.47417 15.5571 3.11784 17.5903 3.11784C19.0551 3.11784 20.979 5.89439 21.9628 10.4855H24.63ZM13.0647 31.9108C7.4031 30.0804 3.39462 25.0288 2.89863 19.0994H9.78534C9.77235 23.5791 10.901 27.9883 13.0647 31.9108ZM9.78534 16.607H2.89863C3.40305 10.6858 7.40997 5.64484 13.0647 3.81744C10.901 7.74 9.77235 12.1492 9.78534 16.6289V16.607Z" fill="black"/>
</svg>
