<?xml version="1.0" encoding="UTF-8"?>
<svg width="24px" height="24px" viewBox="0 0 24 24" version="1.1" xmlns="http://www.w3.org/2000/svg" xmlns:xlink="http://www.w3.org/1999/xlink">
    <title>TW Components/Icons/General/Light/Small/location_sm</title>
    <g id="TW-Components/Icons/General/Light/Small/location_sm" stroke="none" stroke-width="1" fill="none" fill-rule="evenodd">
        <path d="M12,4 C9.9812695,4.00096466 8.09820522,5.01063532 6.98844263,6.68712531 C5.87868004,8.3636153 5.69085064,10.4823908 6.48855574,12.3260089 C7.40116429,14.2788978 12.047234,20 12.047234,20 C12.047234,20 16.2572466,14.8687022 17.4181494,12.4552444 C17.7712143,11.6700141 17.9687663,10.824501 18,9.96495111 C18,8.38294328 17.367872,6.8657278 16.2426527,5.74708017 C15.1174335,4.62843255 13.5913063,4 12,4 Z M16.510664,12.0238133 C15.197859,14.2637468 13.7055236,16.3947999 12.0481639,18.3962578 C10.3512476,16.352273 8.80201977,14.1914162 7.41209925,11.9298933 C6.6095935,10.0776552 7.01367098,7.92685148 8.43458263,6.48746921 C9.85549429,5.04808693 12.0109646,4.60607092 13.8888153,5.36898564 C15.7666659,6.13190035 16.9938468,7.94818665 16.9940911,9.96494222 C16.9635401,10.6752031 16.7995763,11.3735098 16.510664,12.0238133 L16.510664,12.0238133 Z M12.0000072,7 C10.3334221,7 8.98238787,8.34314575 8.98238787,10 C8.98238787,11.6568542 10.3334221,13 12.0000072,13 C13.6665923,13 15.0176265,11.6568542 15.0176265,10 C15.0176265,8.34314575 13.6665923,7 12.0000072,7 Z M12.0000072,12 C10.8889504,12 9.98826097,11.1045695 9.98826097,10 C9.98826097,8.8954305 10.8889504,8 12.0000072,8 C13.1110639,8 14.0117534,8.8954305 14.0117534,10 C14.0105018,11.1040537 13.1105451,11.9987558 12.0000072,12 L12.0000072,12 Z" id="Color" fill="#000000"></path>
    </g>
</svg>