<svg width="29" height="32" viewBox="0 0 29 32" fill="none" xmlns="http://www.w3.org/2000/svg">
<path fill-rule="evenodd" clip-rule="evenodd" d="M14.2138 15.6045C15.6267 15.6049 16.9005 14.754 17.4413 13.4489C17.9822 12.1437 17.6834 10.6412 16.6844 9.64219C15.6854 8.64318 14.1829 8.34442 12.8777 8.88523C11.5725 9.42605 10.7217 10.6999 10.722 12.1127C10.7219 13.0388 11.0898 13.927 11.7447 14.5819C12.3995 15.2368 13.2877 15.6046 14.2138 15.6045ZM14.2138 10.5872C15.0558 10.5868 15.7388 11.269 15.7393 12.111C15.7398 12.953 15.0576 13.6359 14.2156 13.6364C13.3736 13.6369 12.6906 12.9547 12.6901 12.1127C12.69 11.2709 13.372 10.5881 14.2138 10.5872ZM7.72006 19.0998V22.3152H20.7094V19.0998C17.0355 15.7294 11.3939 15.7294 7.72006 19.0998ZM18.7395 20.3489H9.68814V20.034C12.3765 18.042 16.0512 18.042 18.7395 20.034V20.3489ZM27.8137 16.2553C27.8127 14.8084 27.583 13.3707 27.1332 11.9955C28.1295 11.058 28.3473 9.55718 27.6587 8.3751C26.9701 7.19303 25.5571 6.64224 24.2502 7.04646C22.3098 4.8903 19.7364 3.40399 16.8992 2.80066C16.5934 1.46003 15.4005 0.509488 14.0254 0.510743C12.6504 0.512001 11.4592 1.46472 11.1559 2.80591C8.3234 3.41132 5.75514 4.89754 3.8189 7.05171C2.50599 6.63046 1.07741 7.18569 0.393569 8.383C-0.291012 9.57176 -0.0655124 11.0756 0.937633 12.0113C0.0348681 14.7686 0.0348681 17.742 0.937633 20.4994C-0.0654457 21.4351 -0.290938 22.9388 0.393569 24.1276C1.07753 25.3248 2.50599 25.88 3.8189 25.4589C5.75517 27.6131 8.32342 29.0993 11.1559 29.7047C11.4592 31.0459 12.6504 31.9986 14.0254 31.9999C15.4005 32.0011 16.5934 31.0506 16.8992 29.71C19.7367 29.1073 22.3102 27.6209 24.2502 25.4642C25.5571 25.8684 26.9701 25.3176 27.6587 24.1355C28.3473 22.9534 28.1295 21.4526 27.1332 20.5151C27.5822 19.1397 27.8118 17.7022 27.8137 16.2553ZM14.0284 2.47877C14.5719 2.47829 15.0128 2.91847 15.0133 3.46194C15.0138 4.0054 14.5736 4.44637 14.0302 4.44685C13.4867 4.44733 13.0457 4.00715 13.0452 3.46369C13.0448 2.92022 13.4849 2.47926 14.0284 2.47877ZM2.09749 9.36617C2.29631 9.02158 2.68314 8.83068 3.07759 8.88251C3.47204 8.93433 3.79643 9.21866 3.89949 9.60292C4.00256 9.98717 3.86401 10.3957 3.54845 10.6379C3.23288 10.8802 2.80245 10.9085 2.45786 10.7097C2.23135 10.5799 2.06595 10.3651 1.99831 10.1129C1.93067 9.86069 1.96636 9.59195 2.09749 9.36617ZM3.44103 23.5048C3.09644 23.7037 2.66601 23.6753 2.35044 23.4331C2.03488 23.1908 1.89633 22.7823 1.9994 22.398C2.10246 22.0138 2.42686 21.7295 2.8213 21.6776C3.21575 21.6258 3.60258 21.8167 3.8014 22.1613C4.07288 22.6318 3.91154 23.2333 3.44103 23.5048ZM14.0284 30.0319C13.4849 30.0323 13.044 29.5922 13.0435 29.0487C13.043 28.5052 13.4832 28.0643 14.0267 28.0638C14.5701 28.0633 15.0111 28.5035 15.0116 29.0469C15.012 29.5904 14.5719 30.0314 14.0284 30.0319ZM22.6635 24.2903C21.0562 26.0175 18.9678 27.2229 16.6683 27.7506C16.1786 26.7392 15.1541 26.0964 14.0304 26.0957C12.9066 26.0949 11.8813 26.7363 11.3903 27.7471C9.09078 27.2168 7.00344 26.0083 5.39861 24.2781C6.02102 23.3486 6.06238 22.1465 5.50532 21.1764C4.94873 20.1999 3.8773 19.6339 2.75701 19.7244C2.05256 17.4653 2.05256 15.0453 2.75701 12.7862C3.87729 12.8767 4.9487 12.3107 5.50532 11.3342C6.06383 10.3647 6.02313 9.16211 5.40036 8.23256C7.00545 6.50268 9.09268 5.29421 11.3921 4.76349C11.8826 5.77424 12.9077 6.41569 14.0313 6.41495C15.1548 6.4142 16.179 5.77139 16.6683 4.75999C18.9681 5.28702 21.0567 6.49251 22.6635 8.22031C22.0345 9.15158 21.9904 10.3596 22.5497 11.3342C23.1097 12.316 24.1897 12.8823 25.3157 12.7845C26.0223 15.0444 26.0223 17.4662 25.3157 19.7261C24.1896 19.628 23.1094 20.1943 22.5497 21.1764C21.9904 22.151 22.0345 23.359 22.6635 24.2903ZM25.9593 23.1445C25.7605 23.489 25.3737 23.6799 24.9792 23.6281C24.5848 23.5763 24.2604 23.292 24.1573 22.9077C24.0543 22.5234 24.1928 22.1149 24.5084 21.8727C24.8239 21.6304 25.2544 21.6021 25.599 21.8009C25.8255 21.9307 25.991 22.1455 26.0586 22.3977C26.1263 22.6499 26.0905 22.9187 25.9593 23.1445ZM25.599 10.7097C25.2544 10.9085 24.8239 10.8802 24.5084 10.6379C24.1928 10.3957 24.0543 9.98717 24.1573 9.60292C24.2604 9.21866 24.5848 8.93433 24.9792 8.88251C25.3737 8.83068 25.7605 9.02158 25.9593 9.36617C26.0906 9.5919 26.1265 9.86071 26.0588 10.1129C25.9911 10.3652 25.8256 10.58 25.599 10.7097Z" fill="black"/>
</svg>
