<?xml version="1.0" encoding="UTF-8"?>
<svg width="34px" height="34px" viewBox="0 0 30 30" version="1.1" xmlns="http://www.w3.org/2000/svg" xmlns:xlink="http://www.w3.org/1999/xlink">
    <title>TW Components/Icons/General/Light/data</title>
    <g id="TW-Components/Icons/General/Light/data" stroke="none" stroke-width="1" fill="none" fill-rule="evenodd">
        <path d="M5,24.1877778 L8.33333333,24.1877778 L8.33333333,20.8544444 L5,20.8544444 L5,24.1877778 Z M6.24444444,22.0988889 L7.07777778,22.0988889 L7.07777778,22.9322222 L6.24444444,22.9322222 L6.24444444,22.0988889 Z M10.5555556,24.1877778 L13.8888889,24.1877778 L13.8888889,18.6322222 L10.5555556,18.6322222 L10.5555556,24.1877778 Z M11.8,19.8766667 L12.6333333,19.8766667 L12.6333333,22.9322222 L11.8,22.9322222 L11.8,19.8766667 Z M16.1111111,24.1877778 L19.4444444,24.1877778 L19.4444444,14.1877778 L16.1111111,14.1877778 L16.1111111,24.1877778 Z M17.3555556,15.4322222 L18.1888889,15.4322222 L18.1888889,22.9322222 L17.3555556,22.9322222 L17.3555556,15.4322222 Z M21.6666667,9.74333333 L21.6666667,24.1877778 L25,24.1877778 L25,9.74333333 L21.6666667,9.74333333 Z M23.7444444,22.9322222 L22.9111111,22.9322222 L22.9111111,10.9877778 L23.7444444,10.9877778 L23.7444444,22.9322222 Z M16.2444444,6.81 L10.1222222,12.9322222 L6.78888889,9.59888889 L7.77777778,8.61 L10.1222222,10.9433333 L15.2222222,5.81 L16.2444444,6.81 Z" id="Color" fill="#000000"></path>
    </g>
</svg>