<svg width="40" height="40" viewBox="0 0 40 40" fill="none" xmlns="http://www.w3.org/2000/svg">
<path fill-rule="evenodd" clip-rule="evenodd" d="M18.2495 16.3824H5.5245V13.9101H20.6944C19.7571 14.6035 18.9324 15.4374 18.2495 16.3824ZM5.5245 30.098H18.771C18.1349 29.3471 17.6002 28.5159 17.1807 27.6257H5.5245V30.098ZM26.026 7.05232H5.5245V9.52461H26.026V7.05232ZM5.5245 20.769V23.2413H16.1528C16.1497 23.1333 16.1208 23.0325 16.1208 22.9237C16.124 22.2001 16.197 21.4785 16.3387 20.769H5.5245ZM28.9897 34.0411V37.5277H3.17345V3.13895H28.9897V11.8128C29.8339 11.933 30.6627 12.1434 31.462 12.4406V0.666672H0.701172V40H31.462V33.4199C30.6599 33.7063 29.8319 33.9143 28.9897 34.0411V34.0411ZM38.1744 35.3537L33.0716 30.2728C29.1569 33.2965 23.5679 32.7654 20.2927 29.0584C17.0176 25.3515 17.1791 19.7396 20.6622 16.2273C24.1452 12.715 29.7555 12.5063 33.4898 15.7503C37.224 18.9943 37.8019 24.5787 34.8111 28.5186L39.9169 33.6025L38.1744 35.3537ZM34.2498 22.9145C34.2498 20.1376 32.5769 17.634 30.0114 16.5713C27.4458 15.5086 24.4926 16.096 22.529 18.0596C20.5654 20.0233 19.978 22.9764 21.0407 25.542C22.1034 28.1076 24.6069 29.7804 27.3839 29.7804C31.174 29.7761 34.2455 26.7046 34.2498 22.9145Z" fill="black"/>
</svg>
