<svg width="40" height="40" viewBox="0 0 40 40" fill="none" xmlns="http://www.w3.org/2000/svg">
<path fill-rule="evenodd" clip-rule="evenodd" d="M37.4427 5.47405V0.666641H0.666016V30.1011H20.3327V40H39.9993V5.47405H37.4427ZM6.69713 12.9474H4.33713V17.9733H6.74083V27.6974H3.06972V3.07034H6.69713V12.9474ZM9.10083 27.6974V3.07034H35.039V5.47405H20.2671V27.6974H9.10083ZM37.5082 37.5307H22.7145V33.8815H27.6749V36.2852H32.5697V33.8815H37.5519L37.5082 37.5307ZM37.5082 31.3903H22.7145V14.2148H37.5519L37.5082 31.3903ZM37.5082 11.7237H22.7145V7.8996H37.5519L37.5082 11.7237ZM28.7675 28.5933L23.829 24.5944L25.3805 22.6933L28.3742 25.1407L34.4708 17.0555L36.4375 18.5415L28.7675 28.5933Z" fill="black"/>
</svg>
