<svg width="64" height="64" viewBox="0 0 64 64" fill="none" xmlns="http://www.w3.org/2000/svg">
<path fill-rule="evenodd" clip-rule="evenodd" d="M28.5533 25.5714H7.84812V21.5487H32.5314C31.0062 22.6769 29.6644 24.0337 28.5533 25.5714ZM7.84812 47.8883H29.4018C28.3667 46.6665 27.4967 45.314 26.8141 43.8656H7.84812V47.8883ZM41.2065 10.3902H7.84812V14.4129H41.2065V10.3902ZM7.84812 32.7088V36.7315H25.1416C25.1366 36.5559 25.0895 36.3919 25.0895 36.2147C25.0947 35.0374 25.2135 33.8634 25.4441 32.7088H7.84812ZM46.0288 54.3042V59.9773H4.0227V4.0227H46.0288V18.1361C47.4024 18.3316 48.751 18.6741 50.0515 19.1575V0H0V64H50.0515V53.2935C48.7463 53.7594 47.3992 54.0978 46.0288 54.3042V54.3042ZM60.9734 56.44L52.6705 48.1726C46.3008 53.0926 37.2068 52.2284 31.8777 46.1968C26.5487 40.1652 26.8116 31.034 32.4789 25.319C38.1462 19.604 47.2749 19.2646 53.351 24.5429C59.427 29.8212 60.3674 38.9077 55.5009 45.3184L63.8087 53.5906L60.9734 56.44ZM54.5875 36.1999C54.5875 31.6814 51.8657 27.6079 47.6911 25.8787C43.5166 24.1496 38.7115 25.1054 35.5165 28.3004C32.3215 31.4955 31.3657 36.3006 33.0948 40.4751C34.824 44.6496 38.8975 47.3715 43.416 47.3715C49.583 47.3645 54.5805 42.3669 54.5875 36.1999Z" fill="black"/>
</svg>
