<svg width="26" height="40" viewBox="0 0 26 40" fill="none" xmlns="http://www.w3.org/2000/svg">
<path fill-rule="evenodd" clip-rule="evenodd" d="M18.5894 10.2232C15.62 7.25318 10.8052 7.25265 7.83515 10.222L7.83394 10.2232L6.10703 8.49474C10.0313 4.57195 16.3922 4.57195 20.3165 8.49474L18.5894 10.2232ZM9.56166 11.9508L11.2901 13.6777C12.3662 12.6512 14.059 12.6512 15.135 13.6777L16.8619 11.9508L16.861 11.95C14.8451 9.93457 11.5771 9.93493 9.56166 11.9508ZM4.37945 6.76767C9.25744 1.88979 17.1661 1.88984 22.0441 6.76781L23.771 5.0409L23.7695 5.03943C20.969 2.23932 17.1709 0.666382 13.2107 0.666657C9.25043 0.666931 5.45251 2.24039 2.65241 5.0409L4.37932 6.76781L4.37945 6.76767ZM25.5136 40H22.8298L21.4162 36.8924L13.2204 29.3025L4.97216 36.97L3.59416 40H0.910156L12.0996 15.3993H14.3237L25.5136 40ZM11.423 27.6384L9.87043 26.2005L7.60041 31.1916L11.423 27.6384ZM15.488 23.8595L13.2116 18.8548L10.9361 23.8577L13.2174 25.9702L15.488 23.8595ZM18.7994 31.1397L16.5542 26.2036L15.0146 27.6347L18.7994 31.1397Z" fill="black"/>
</svg>
