<svg width="40" height="40" viewBox="0 0 40 40" fill="none" xmlns="http://www.w3.org/2000/svg">
<path fill-rule="evenodd" clip-rule="evenodd" d="M0.666016 40H20.3327V10.5H0.666016V40ZM3.13527 12.9692H17.8853V31.3904H3.13527V12.9692ZM3.13527 33.8596H8.05194V36.307H12.9686V33.8815H17.8853V37.5744H3.13527V33.8596ZM30.2971 17.733H27.8497C27.8497 15.0261 25.6618 12.8283 22.9549 12.8163V10.3689C27.0134 10.3809 30.2971 13.6744 30.2971 17.733ZM35.2138 17.733H32.7664C32.7544 12.3156 28.3722 7.92363 22.9549 7.89962V5.47406C29.7203 5.48609 35.2018 10.9675 35.2138 17.733ZM39.9993 17.733H37.5519C37.5519 13.8616 36.014 10.1488 33.2766 7.41129C30.5391 4.67381 26.8263 3.13592 22.9549 3.13592V0.666656C32.3633 0.678695 39.9873 8.30271 39.9993 17.7111V17.733Z" fill="black"/>
</svg>
