<svg width="40" height="40" viewBox="0 0 40 40" fill="none" xmlns="http://www.w3.org/2000/svg">
<path fill-rule="evenodd" clip-rule="evenodd" d="M17.106 11.3265C13.9125 11.3265 11.3237 13.9153 11.3237 17.1088C11.3237 20.3023 13.9125 22.8911 17.106 22.8911C20.2995 22.8911 22.8883 20.3023 22.8883 17.1088C22.8883 15.5752 22.2792 14.1044 21.1948 13.02C20.1104 11.9355 18.6396 11.3265 17.106 11.3265ZM17.106 20.4305C15.2703 20.4305 13.7822 18.9423 13.7822 17.1066C13.7822 15.2709 15.2703 13.7828 17.106 13.7828C18.9417 13.7828 20.4298 15.2709 20.4298 17.1066C20.4275 18.9413 18.9407 20.4281 17.106 20.4305ZM14.9141 27.2486C14.9141 27.2486 17.2747 27.381 17.3753 27.3789C17.324 28.0631 17.248 29.6982 17.2524 29.8425C17.2296 29.8363 16.4995 29.8083 16.0746 29.8076L13.3014 33.5488L8.16815 31.4225L8.85433 26.8159C8.33064 26.3701 7.84392 25.8827 7.39892 25.3583L2.79231 26.0445L0.666016 20.909L4.40943 18.1359C4.35189 17.4502 4.35116 16.761 4.40725 16.0752L0.666016 13.3042L2.79231 8.17093L7.39892 8.85492C7.84376 8.33031 8.33209 7.84418 8.8587 7.4017L8.17033 2.79301L13.3036 0.666718L16.0789 4.41013C16.4242 4.38173 16.7695 4.36861 17.1126 4.36861C17.4557 4.36861 17.7966 4.38173 18.1375 4.40795L20.9106 0.666718L26.0461 2.79301L25.3599 7.39962C25.8822 7.84684 26.3695 8.3334 26.8175 8.85503L31.4241 8.16885L33.5504 13.3043L29.8071 16.0774C29.83 16.3856 29.8127 16.6906 29.8082 16.9966L27.3606 17.1667C27.3684 16.8712 27.2458 14.9149 27.2458 14.9149L28.3428 14.1041L30.5434 12.4739L29.8857 10.8852L27.1782 11.2895L25.8277 11.4905L24.9426 10.4503C24.5819 10.0277 24.1889 9.6339 23.7669 9.27245L22.7267 8.3874L22.9278 7.03689L23.3299 4.3293L21.7411 3.67153L20.1109 5.87212L19.3002 6.96477L17.9453 6.85988C17.6699 6.83802 17.3924 6.8271 17.1127 6.8271C16.8351 6.8271 16.5576 6.83802 16.2801 6.85988L14.9185 6.97133L14.1057 5.87431L12.4711 3.66934L10.8846 4.32712L11.2889 7.03689L11.4899 8.39177L10.4432 9.27682C10.0217 9.63421 9.63002 10.0252 9.27183 10.446L8.38679 11.4885L7.03627 11.2874L4.32869 10.8853L3.67091 12.474L5.86932 14.1021L6.96853 14.915L6.85708 16.2764C6.813 16.8299 6.81373 17.3861 6.85926 17.9395L6.96853 19.2987L5.87162 20.1116L3.67102 21.7419L4.32661 23.3306L7.0342 22.9263L8.38471 22.7253L9.26976 23.7655C9.62932 24.1891 10.0225 24.583 10.4454 24.9433L11.4857 25.8284L11.2846 27.1789L10.8825 29.8864L12.4712 30.5441L14.1015 28.3436L14.9141 27.2486ZM39.9992 27.7512L38.0913 23.1446L35.2986 23.562L35.716 20.7692L31.1116 18.8637L29.4289 21.1298L27.7484 18.8637L23.1418 20.7693L23.5592 23.5621L20.7686 23.1447L18.8608 27.7513L21.1291 29.4296L18.8608 31.1101L20.7686 35.7167L23.5592 35.3015L23.1418 38.0921L27.7484 40L29.4289 37.7317L31.1094 40L35.7138 38.0921L35.2964 35.2994L38.0892 35.7168L39.997 31.1102L37.7287 29.4319L39.9992 27.7512ZM35.2068 28.9597C35.2326 29.2709 35.2333 29.5836 35.209 29.895L35.1522 30.579L36.9944 31.9426L36.555 33.0003L34.2889 32.6637L33.8475 33.1838C33.6458 33.4208 33.4251 33.6408 33.1875 33.8416L32.663 34.2852L33.0018 36.5558L31.9463 36.9951L30.5783 35.1506L29.8943 35.2096C29.5846 35.238 29.273 35.238 28.9633 35.2096L28.2837 35.155L26.9201 36.9951L25.8624 36.5556L26.1989 34.2918L25.681 33.8482C25.4417 33.6438 25.2188 33.421 25.0145 33.1817L24.5731 32.6637L22.3091 33.0003L21.8698 31.9426L23.712 30.5768L23.6574 29.895C23.6304 29.5845 23.6297 29.2724 23.6552 28.9618L23.712 28.2822L21.8698 26.9164L22.3091 25.8587L24.5752 26.1952L25.0167 25.6751C25.2196 25.438 25.441 25.2174 25.6788 25.0153L26.2011 24.5739L25.8624 22.3055L26.9201 21.8685L28.2881 23.7107L28.9677 23.6561C29.2797 23.6313 29.5931 23.6305 29.9052 23.6539L30.5826 23.7063L31.9463 21.8707L33.0039 22.3077L32.6674 24.5717L33.1853 25.0153C33.4237 25.2184 33.6452 25.4406 33.8475 25.6796L34.2889 26.2019L36.5572 25.8632L36.9965 26.9209L35.1565 28.2845L35.2068 28.9597ZM29.4311 25.3779C27.1935 25.3779 25.3795 27.1919 25.3795 29.4295C25.3795 31.6671 27.1935 33.481 29.4311 33.481C31.6687 33.481 33.4826 31.6671 33.4826 29.4295C33.4826 28.3549 33.0559 27.3244 32.296 26.5646C31.5362 25.8047 30.5057 25.3779 29.4311 25.3779H29.4311ZM29.4311 31.0248C28.5513 31.0248 27.838 30.3115 27.838 29.4317C27.838 28.5518 28.5513 27.8386 29.4311 27.8386C30.3109 27.8386 31.0242 28.5518 31.0242 29.4317C31.0233 30.3111 30.3106 31.0239 29.4311 31.0248L29.4311 31.0248Z" fill="black"/>
</svg>
