<svg width="33" height="32" viewBox="0 0 33 32" fill="none" xmlns="http://www.w3.org/2000/svg">
<path fill-rule="evenodd" clip-rule="evenodd" d="M24.2091 9.23711L28.8364 7.70653L32.0043 2.52748L29.5127 0.0358406L24.298 3.20378L22.7853 7.84891L11.039 19.5418L8.97447 17.4239L0.0757658 26.3226L5.69975 31.9822L14.5985 23.0835L12.4806 20.9478L24.2091 9.23711ZM25.9888 4.55638L29.1745 2.3851L29.6551 2.88343L27.4126 6.10476L25.1701 6.85225L25.9888 4.55638ZM5.69975 29.1524L2.90556 26.3226L8.97447 20.2537L11.8043 23.0835L5.69975 29.1524ZM2.35384 13.6509C-0.243149 11.0659 -0.749314 7.04593 1.12581 3.89788L6.58962 9.39728L9.41941 6.56749L3.92001 1.10369C5.16456 0.384384 6.57595 0.00392399 8.01341 0.000245682C10.1369 -0.0165066 12.1774 0.824075 13.673 2.33171C15.6829 4.35041 16.4631 7.28805 15.7197 10.038L16.8943 11.2126L15.4883 12.6364L13.495 10.6431C14.4428 8.29331 13.9584 5.60813 12.2492 3.7377C11.0615 2.51017 9.39831 1.86047 7.69306 1.95796L12.2492 6.56749C12.445 6.38952 6.90997 11.9067 6.58962 12.2449C6.89218 12.5296 2.14027 7.84891 2.03348 7.67093C1.9449 9.38 2.59281 11.0451 3.81322 12.2449C6.35825 14.7721 8.7787 13.9178 10.7186 13.4729L12.6585 15.4662L11.2347 16.8722L10.0601 15.6976C9.37418 15.8749 8.66852 15.9646 7.96002 15.9645C5.85794 15.9697 3.84044 15.1371 2.35384 13.6509ZM32.0221 26.3404L26.3625 32L15.168 20.8232L16.5918 19.3994L26.3625 29.1702L29.1923 26.3404L19.4216 16.5696L20.8454 15.1636L32.0221 26.3404Z" fill="black"/>
</svg>
