<svg width="40" height="40" viewBox="0 0 40 40" fill="none" xmlns="http://www.w3.org/2000/svg">
<path fill-rule="evenodd" clip-rule="evenodd" d="M24.3338 9.36539V14.5927L19.9314 18.9951L19.6111 21.1457L21.6705 20.7343L26.0797 16.3249L31.3002 16.3318L39.9969 7.63506L33.0304 7.62609V0.668729L24.3338 9.36539ZM26.7936 10.3843L30.5706 6.60719V8.3557L26.7936 12.1328V10.3843ZM34.0663 10.0872L30.2827 13.8707L28.5363 13.8683L32.3197 10.0849L33.0271 10.0857L34.0663 10.0872ZM38.4422 12.6695C42.1099 21.3356 39.1242 31.3855 31.3199 36.6435C23.5156 41.9015 13.08 40.8938 6.42604 34.2396C-0.227961 27.5854 -1.23541 17.1499 4.02279 9.34567C9.28098 1.54149 19.331 -1.4439 27.997 2.22403L26.0801 4.14122C18.4648 1.4131 9.9758 4.33068 5.64662 11.164C1.31744 17.9974 2.30574 26.9191 8.02552 32.6393C13.7453 38.3595 22.667 39.3485 29.5007 35.0198C36.3343 30.6911 39.2525 22.2023 36.5249 14.5868L38.4422 12.6695ZM21.8753 10.6653C17.8112 10.0206 13.7761 11.978 11.7665 15.5688C9.75695 19.1596 10.199 23.6225 12.8739 26.7493C15.5489 29.8762 19.8895 31.0039 23.7481 29.5746C27.6068 28.1452 30.1653 24.4619 30.1578 20.347C30.1471 19.8245 30.0944 19.3037 30.0003 18.7896L32.4481 18.6644C32.5435 19.2207 32.6001 19.7829 32.6175 20.347C32.6175 27.1395 27.1111 32.6459 20.3186 32.6459C13.5261 32.6459 8.0197 27.1395 8.0197 20.347C8.0197 13.5545 13.5261 8.04808 20.3186 8.04808C20.8838 8.06546 21.4471 8.12223 22.0044 8.21797L21.8753 10.6653ZM18.5759 18.6145C17.9541 19.2371 17.7128 20.1448 17.9435 20.994C18.1741 21.8432 18.8413 22.5042 19.6927 22.7268C20.544 22.9494 21.4494 22.6996 22.0662 22.0719L25.2052 20.0215C25.2127 20.131 25.2382 20.2354 25.2382 20.3469C25.2382 22.3367 24.0396 24.1306 22.2013 24.8921C20.363 25.6535 18.247 25.2327 16.84 23.8257C15.433 22.4187 15.0121 20.3027 15.7735 18.4644C16.535 16.6261 18.3288 15.4274 20.3186 15.4274C20.4291 15.4274 20.5324 15.4527 20.6408 15.4599L18.5759 18.6145Z" fill="black"/>
</svg>
