<svg width="30" height="32" viewBox="0 0 30 32" fill="none" xmlns="http://www.w3.org/2000/svg">
<path fill-rule="evenodd" clip-rule="evenodd" d="M28.215 7.75788L29.6272 6.34571L23.3335 0.0533334L21.3154 0V12.5757C20.1969 11.9263 18.8866 11.6884 17.6113 11.9033V3.79751H0V32H17.6113V23.1729C18.5681 22.8991 19.4666 22.452 20.262 21.8538C22.094 20.5654 23.2217 18.4975 23.3126 16.2597V8.57451L25.479 10.737L26.8886 9.3222L23.3127 5.75275V2.85817L28.215 7.75788ZM13.9138 13.443C12.3196 14.5795 11.2364 16.2974 10.8982 18.2258C10.7011 19.4449 10.9999 20.6923 11.7279 21.6899C12.6766 22.8672 14.1243 23.5289 15.6353 23.4759V24.9668H1.99735V10.9425H15.6353V12.4637C15.0243 12.7201 14.4463 13.0489 13.9138 13.443ZM15.6353 5.79484V8.94507H1.99735V5.79484H15.6353ZM1.99735 30.0027V26.9641H6.51086V28.5661H11.1102V26.9641H15.6353V30.0027H1.99735ZM19.0579 20.2596C17.0242 21.7966 14.3923 21.9032 13.3195 20.4832C12.9144 19.9087 12.7553 19.1963 12.8774 18.5041C13.1481 17.1034 13.95 15.8616 15.1153 15.0386C16.0895 14.278 17.2815 13.8488 18.517 13.8138C19.4083 13.7601 20.2728 14.1297 20.8498 14.8111C21.1406 15.2091 21.3031 15.6863 21.3154 16.1791L21.318 16.2597C21.2189 17.8693 20.3856 19.3441 19.0579 20.2596Z" fill="black"/>
</svg>
