<svg width="32" height="32" viewBox="0 0 32 32" fill="none" xmlns="http://www.w3.org/2000/svg">
<path fill-rule="evenodd" clip-rule="evenodd" d="M0 0V32H32V0H0ZM29.5893 29.5893H2.38933V2.38933H29.5893V29.5893ZM10.24 15.36C13.8367 13.8209 17.9194 13.8908 21.4613 15.552L22.5493 16.064L27.0933 6.63467L26.0267 6.12267C19.7369 3.14929 12.4737 3.01724 6.08 5.76L4.97067 6.22933L9.23733 15.808L10.24 15.36ZM23.8293 7.89333L21.3973 12.9067C20.0243 12.394 18.5897 12.0641 17.1307 11.9253V7.44533H14.8053V11.9253C13.3122 11.9949 11.8347 12.2602 10.4107 12.7147L8.14933 7.53067C13.2423 5.71656 18.8257 5.8457 23.8293 7.89333Z" fill="black"/>
</svg>
