<svg width="22" height="32" viewBox="0 0 22 32" fill="none" xmlns="http://www.w3.org/2000/svg">
<path fill-rule="evenodd" clip-rule="evenodd" d="M0 4.63448V27.4097C0 30.411 5.4731 32 10.7697 32C16.0662 32 21.5393 30.411 21.5393 27.4097V4.63448C21.5393 -1.54483 0 -1.54483 0 4.63448ZM10.7697 1.98621C16.2428 1.98621 19.5972 3.57517 19.5972 4.63448C19.5972 5.51724 16.2428 7.28276 10.7697 7.28276C5.29655 7.28276 1.94207 5.69379 1.94207 4.63448C1.94207 3.57517 5.29655 1.98621 10.7697 1.98621ZM10.7697 29.8814C5.29655 29.8814 1.94207 28.2924 1.94207 27.2331V23.5255C4.7669 24.7614 7.76828 25.291 10.7697 25.291C13.771 25.291 16.7724 24.7614 19.5972 23.5255V27.2331C19.5972 28.1159 16.2428 29.8814 10.7697 29.8814ZM10.7697 23.349C5.29655 23.349 1.94207 21.76 1.94207 20.7007V7.28276C4.7669 8.51862 7.76828 9.04827 10.7697 9.04827C13.771 9.04827 16.7724 8.51862 19.5972 7.28276V20.7007C19.5972 21.76 16.2428 23.349 10.7697 23.349Z" fill="black"/>
</svg>
