<svg width="32" height="23" viewBox="0 0 32 23" fill="none" xmlns="http://www.w3.org/2000/svg">
<path fill-rule="evenodd" clip-rule="evenodd" d="M32 0H0V23H32V0ZM29.714 20.6998H2.28602V2.3002H29.714V20.6998ZM10.156 18.9751C13.9436 18.9751 17.014 15.8856 17.014 12.0745C17.014 8.26345 13.9436 5.17394 10.156 5.17394C6.36843 5.17394 3.298 8.26345 3.298 12.0745C3.301 15.8844 6.36967 18.9721 10.156 18.9751ZM10.156 7.47415C12.681 7.47415 14.728 9.53381 14.728 12.0745C14.728 14.6153 12.681 16.6749 10.156 16.6749C7.63095 16.6749 5.584 14.6153 5.584 12.0745C5.58621 9.53473 7.63187 7.47636 10.156 7.47415ZM21.584 7.47415C21.584 6.20378 22.6075 5.17394 23.87 5.17394C25.1325 5.17394 26.156 6.20378 26.156 7.47415C26.156 8.74451 25.1325 9.77435 23.87 9.77435C23.2637 9.77435 22.6823 9.53201 22.2535 9.10064C21.8248 8.66927 21.584 8.0842 21.584 7.47415Z" fill="black"/>
</svg>
