<svg width="32" height="32" viewBox="0 0 32 32" fill="none" xmlns="http://www.w3.org/2000/svg">
<path fill-rule="evenodd" clip-rule="evenodd" d="M13.375 8.67238C10.7769 8.67238 8.67069 10.7786 8.67069 13.3766C8.67069 15.9747 10.7769 18.0809 13.375 18.0809C15.973 18.0809 18.0792 15.9747 18.0792 13.3766C18.0792 12.129 17.5837 10.9324 16.7015 10.0501C15.8192 9.16789 14.6226 8.67238 13.375 8.67238ZM13.375 16.079C11.8815 16.079 10.6708 14.8683 10.6708 13.3749C10.6708 11.8814 11.8815 10.6707 13.375 10.6707C14.8684 10.6707 16.0791 11.8814 16.0791 13.3749C16.0772 14.8675 14.8676 16.0771 13.375 16.079ZM11.5917 21.626C11.5917 21.626 13.5122 21.7338 13.594 21.732C13.5524 22.2887 13.4905 23.6189 13.4941 23.7364C13.4755 23.7312 12.8815 23.7085 12.5358 23.7079L10.2797 26.7516L6.10345 25.0218L6.66171 21.274C6.23565 20.9113 5.83967 20.5147 5.47764 20.0881L1.72987 20.6464L0 16.4684L3.0455 14.2123C2.99869 13.6544 2.99809 13.0937 3.04373 12.5357L0 10.2814L1.72987 6.10514L5.47764 6.66162C5.83955 6.23481 6.23683 5.83931 6.66526 5.47933L6.10523 1.72987L10.2815 0L12.5394 3.0455C12.8203 3.02239 13.1012 3.01172 13.3803 3.01172C13.6594 3.01172 13.9368 3.02239 14.2141 3.04373L16.4703 0L20.6483 1.72987L20.09 5.47764C20.5149 5.84148 20.9114 6.23733 21.2759 6.66171L25.0236 6.10345L26.7535 10.2815L23.7081 12.5376C23.7268 12.7883 23.7126 13.0364 23.709 13.2853L21.7178 13.4238C21.724 13.1833 21.6243 11.5918 21.6243 11.5918L22.5168 10.9322L24.3071 9.60589L23.772 8.31337L21.5693 8.64228L20.4706 8.80585L19.7505 7.95957C19.4571 7.61576 19.1373 7.29536 18.794 7.0013L17.9478 6.28126L18.1113 5.18253L18.4385 2.97974L17.1459 2.4446L15.8196 4.23492L15.1601 5.12386L14.0578 5.03852C13.8338 5.02074 13.608 5.01185 13.3804 5.01185C13.1546 5.01185 12.9288 5.02074 12.703 5.03852L11.5953 5.12919L10.934 4.2367L9.60418 2.44282L8.31344 2.97796L8.64235 5.18253L8.80592 6.28481L7.95431 7.00485C7.61147 7.29562 7.29277 7.61372 7.00137 7.95602L6.28133 8.80416L5.1826 8.64059L2.97981 8.31346L2.44467 9.60598L4.23321 10.9305L5.12749 11.5919L5.03682 12.6995C5.00096 13.1498 5.00155 13.6022 5.03859 14.0524L5.12749 15.1583L4.23508 15.8197L2.44476 17.146L2.97812 18.4385L5.18091 18.1096L6.27964 17.946L6.99968 18.7923C7.2922 19.1369 7.61208 19.4574 7.95618 19.7505L8.80245 20.4706L8.63888 21.5693L8.31176 23.772L9.60427 24.3072L10.9306 22.5168L11.5917 21.626ZM32 22.0349L30.4478 18.2871L28.1758 18.6267L28.5154 16.3546L24.7694 14.8044L23.4004 16.648L22.0332 14.8044L18.2854 16.3547L18.625 18.6268L16.3547 18.2872L14.8026 22.035L16.648 23.4004L14.8026 24.7676L16.3547 28.5154L18.625 28.1776L18.2854 30.4479L22.0332 32.0001L23.4004 30.1546L24.7676 32.0001L28.5136 30.4479L28.174 28.1759L30.4461 28.5154L31.9982 24.7677L30.1528 23.4023L32 22.0349ZM28.1011 23.0181C28.1221 23.2713 28.1227 23.5257 28.1029 23.779L28.0567 24.3355L29.5554 25.4449L29.198 26.3054L27.3543 26.0316L26.9952 26.4547C26.8311 26.6475 26.6516 26.8264 26.4583 26.9898L26.0316 27.3508L26.3071 29.198L25.4484 29.5554L24.3355 28.0548L23.779 28.1028C23.5271 28.1259 23.2736 28.1259 23.0216 28.1028L22.4687 28.0584L21.3593 29.5554L20.4988 29.1979L20.7726 27.3561L20.3513 26.9952C20.1566 26.8289 19.9753 26.6476 19.809 26.4529L19.4499 26.0316L17.608 26.3054L17.2506 25.4449L18.7494 24.3337L18.7049 23.779C18.683 23.5265 18.6824 23.2725 18.7032 23.0198L18.7494 22.4669L17.2506 21.3558L17.608 20.4953L19.4516 20.7691L19.8108 20.3459C19.9758 20.153 20.156 19.9735 20.3495 19.8091L20.7744 19.45L20.4988 17.6045L21.3593 17.249L22.4723 18.7477L23.0252 18.7033C23.279 18.6831 23.534 18.6825 23.7879 18.7015L24.339 18.7442L25.4484 17.2507L26.3089 17.6063L26.0351 19.4482L26.4565 19.8091C26.6504 19.9743 26.8306 20.1551 26.9952 20.3496L27.3543 20.7745L29.1998 20.4989L29.5571 21.3594L28.0601 22.4688L28.1011 23.0181ZM23.4022 20.1041C21.5818 20.1041 20.106 21.5799 20.106 23.4003C20.106 25.2207 21.5818 26.6965 23.4022 26.6965C25.2226 26.6965 26.6984 25.2207 26.6984 23.4003C26.6984 22.5261 26.3512 21.6877 25.733 21.0695C25.1148 20.4513 24.2764 20.1041 23.4022 20.1041H23.4022ZM23.4022 24.6982C22.6864 24.6982 22.1061 24.1179 22.1061 23.4021C22.1061 22.6863 22.6864 22.106 23.4022 22.106C24.118 22.106 24.6983 22.6863 24.6983 23.4021C24.6975 24.1176 24.1177 24.6975 23.4022 24.6982L23.4022 24.6982Z" fill="black"/>
</svg>
