<svg width="32" height="32" viewBox="0 0 32 32" fill="none" xmlns="http://www.w3.org/2000/svg">
<path fill-rule="evenodd" clip-rule="evenodd" d="M0 4V28H32V4H0ZM29.8667 26.0444H1.95556V18.7556L10.1333 13.6L20.4444 23.7333L29.8667 18.9333V26.0444ZM30.0444 16.6222L20.9778 21.2444L10.4889 11.1111L1.95556 16.4444V6.13333H30.0444V16.6222ZM22.9333 17.1556C24.5152 17.1556 25.9414 16.2026 26.5467 14.7412C27.1521 13.2797 26.8175 11.5974 25.6989 10.4789C24.5803 9.3603 22.8981 9.02568 21.4366 9.63105C19.9751 10.2364 19.0222 11.6625 19.0222 13.2444C19.0222 14.2817 19.4342 15.2766 20.1677 16.0101C20.9012 16.7435 21.896 17.1556 22.9333 17.1556ZM22.9333 11.3333C23.9888 11.3333 24.8444 12.189 24.8444 13.2444C24.8444 14.2999 23.9888 15.1556 22.9333 15.1556C21.8779 15.1556 21.0222 14.2999 21.0222 13.2444C21.0234 12.1894 21.8783 11.3345 22.9333 11.3333Z" fill="black"/>
</svg>
