<svg width="32" height="32" viewBox="0 0 32 32" fill="none" xmlns="http://www.w3.org/2000/svg">
<path fill-rule="evenodd" clip-rule="evenodd" d="M30.3279 0H1.37352V20.8013H30.3279V0ZM28.2595 18.721H3.44197V2.08031H28.2595V18.721ZM10.5629 17.1612C13.99 17.1612 16.7682 14.367 16.7682 10.9203C16.7682 7.47349 13.99 4.67933 10.5629 4.67933C7.13583 4.67933 4.35763 7.47349 4.35763 10.9203C4.36035 14.3659 7.13696 17.1585 10.5629 17.1612ZM10.5629 6.75964C12.8476 6.75964 14.6998 8.62241 14.6998 10.9203C14.6998 13.2181 12.8476 15.0809 10.5629 15.0809C8.27819 15.0809 6.42606 13.2181 6.42606 10.9203C6.42805 8.62325 8.27902 6.76165 10.5629 6.75964ZM20.9032 6.75964C20.9032 5.61072 21.8293 4.67933 22.9717 4.67933C24.114 4.67933 25.0401 5.61072 25.0401 6.75964C25.0401 7.90857 24.114 8.83995 22.9717 8.83995C22.4231 8.83995 21.897 8.62078 21.5091 8.23065C21.1211 7.84051 20.9032 7.31138 20.9032 6.75964ZM32 24.86C31.0246 28.4746 24.4158 31.0991 15.8507 31.0991C11.9829 31.1881 8.13465 30.5224 4.51869 29.1389L3.29899 32L0 26.0921L6.52921 24.4213L5.31313 27.2734C8.68282 28.5286 12.2582 29.1313 15.8507 29.0497C23.1834 29.0497 28.5599 26.9931 29.8085 24.86H32Z" fill="black"/>
</svg>
