<svg width="26" height="30" viewBox="0 0 26 30" fill="none" xmlns="http://www.w3.org/2000/svg">
<path fill-rule="evenodd" clip-rule="evenodd" d="M13.9939 1.89028C11.2688 5.96394 10.4711 11.0292 11.8124 15.7432C13.1537 20.4572 16.4985 24.3438 20.96 26.3726C16.2732 28.8457 10.5547 28.2287 6.5035 24.8126C2.45225 21.3965 0.87816 15.8644 2.52416 10.8273C4.17015 5.79014 8.70718 2.25497 13.9939 1.89028ZM14.8944 1.67473e-05C8.22401 -0.0099425 2.36307 4.42293 0.556853 10.8441C-1.24936 17.2653 1.4411 24.1036 7.13848 27.5725C12.8359 31.0415 20.1461 30.2923 25.0214 25.7398C19.5421 24.6619 15.1305 20.6017 13.6024 15.2306C12.0743 9.8594 13.688 4.08504 17.7793 0.284272C16.8291 0.0964332 15.8629 0.0012522 14.8944 1.67473e-05Z" fill="black"/>
</svg>
