<svg width="31" height="32" viewBox="0 0 31 32" fill="none" xmlns="http://www.w3.org/2000/svg">
<path fill-rule="evenodd" clip-rule="evenodd" d="M19.3629 18.9714L15.2299 20.2097C14.2267 19.2847 13.3279 18.2524 12.5496 17.1315C11.853 16.0324 10.8513 14.0875 10.3316 13.0603L12.7332 9.699L7.21795 1.79554L0 5.83796L0.0398483 6.62738C0.497119 12.1339 2.42222 17.4171 5.61471 21.9269C9.13438 26.1501 13.5739 29.5118 18.5933 31.7543L19.3189 32L20.0286 31.301L24.7919 26.8903L19.3629 18.9714ZM18.7481 29.0232C14.4774 26.9812 10.6964 24.0436 7.66236 20.41C4.92983 16.5128 3.20938 11.9972 2.65588 7.26981L6.44839 5.14582L9.61516 9.68124L7.37049 12.8237L7.70671 13.5071C7.77298 13.6419 9.35194 16.844 10.398 18.4948C11.451 20.0018 12.6796 21.3781 14.0578 22.5948L14.5863 23.0614L18.3147 21.9456L21.4483 26.5177L18.7481 29.0232ZM18.758 12.0512C19.2737 12.82 19.6319 13.6834 19.812 14.5915L18.1164 14.6765C17.7956 13.2871 16.9129 12.093 15.6786 11.3788L16.1839 9.78288C17.2176 10.3126 18.1024 11.0924 18.758 12.0512H18.758ZM17.7114 4.95936L17.2042 6.56114C20.1159 7.70903 22.3006 10.1835 23.0788 13.215C23.164 13.6121 23.2239 14.0141 23.2583 14.4188L24.953 14.3337C24.5081 10.0901 21.705 6.46153 17.7113 4.95936H17.7114ZM27.7619 6.02326C25.767 3.04596 22.75 0.903074 19.2818 0L18.7811 1.58098C24.5305 3.05542 28.5679 8.21447 28.617 14.1498L30.2609 14.0673C30.2318 11.1994 29.3631 8.40283 27.762 6.02326H27.7619Z" fill="black"/>
</svg>
