<svg width="32" height="32" viewBox="0 0 32 32" fill="none" xmlns="http://www.w3.org/2000/svg">
<path fill-rule="evenodd" clip-rule="evenodd" d="M22.4245 19.1023H14.4553V8.20045H16.458V17.0996H22.4245V19.1023ZM15.9991 4.60044e-05C11.9249 -0.00976979 8.0037 1.55152 5.05133 4.35916L5.08159 5.5962L6.60611 5.6402C9.16974 3.29201 12.5226 1.99363 15.9991 2.0028C23.7291 2.00282 29.9954 8.2692 29.9954 15.9992C29.9954 23.7291 23.729 29.9955 15.999 29.9955C8.26907 29.9955 2.00271 23.7291 2.00271 15.9992H2.60124e-08C-0.000498424 24.8357 7.16254 31.9995 15.9991 32C24.8356 32.0005 31.9994 24.8375 31.9999 16.0009C32.0004 7.16441 24.8374 0.000590899 16.0008 4.60044e-05C16.0003 4.60044e-05 15.9997 4.60044e-05 15.9991 4.60044e-05ZM5.08154 5.5962L6.60606 5.6402L10.3856 5.74918L10.3265 7.75189L3.12403 7.54327L2.94671 0.243462L4.94942 0.194791L5.05133 4.35916L5.08154 5.5962Z" fill="black"/>
</svg>
