<svg width="32" height="32" viewBox="0 0 32 32" fill="none" xmlns="http://www.w3.org/2000/svg">
<path fill-rule="evenodd" clip-rule="evenodd" d="M31.6666 16.3613C31.6606 24.8119 24.8116 31.6608 16.3611 31.6669C11.7346 31.663 7.35003 29.5997 4.39815 26.0373V30.4354H2.46296V22.5187H10.3796V24.4539H5.80555C8.27694 27.8008 12.2008 29.7627 16.3611 29.7317C19.9076 29.7333 23.3093 28.3251 25.8171 25.8173C28.3249 23.3096 29.733 19.9079 29.7315 16.3613H31.6666ZM15.3055 1.93543C19.4658 1.90442 23.3897 3.86635 25.8611 7.2132H21.287V9.14838H29.2037V1.23172H27.2685V5.45394C24.2742 1.96876 19.9003 -0.0252648 15.3055 0.000241742C6.85506 0.00635442 0.00611268 6.8553 0 15.3058H1.93518C1.93361 11.7593 3.34176 8.35754 5.84953 5.84977C8.3573 3.342 11.759 1.93385 15.3055 1.93543ZM12.4907 10.028L22.5185 15.8336L12.4907 21.6391V10.028ZM18.6481 15.8336L14.6018 13.6417V18.2965L18.6481 15.8336Z" fill="black"/>
</svg>
