<svg width="22" height="32" viewBox="0 0 22 32" fill="none" xmlns="http://www.w3.org/2000/svg">
<path fill-rule="evenodd" clip-rule="evenodd" d="M14.541 15.3452L15.7184 16.5226L6.68973 25.5511L5.51229 24.3739L14.541 15.3452ZM7.60294 18.9472C8.43388 18.9472 9.10754 18.2737 9.10754 17.4427C9.10754 16.6118 8.43398 15.9381 7.60304 15.9381C6.7721 15.9381 6.09843 16.6117 6.09843 17.4426C6.09843 18.2735 6.77202 18.9471 7.60294 18.9472ZM13.6211 21.9562C12.7902 21.9562 12.1165 22.6298 12.1165 23.4607C12.1165 24.2917 12.7901 24.9653 13.621 24.9653C14.452 24.9653 15.1256 24.2918 15.1256 23.4608C15.1256 22.6299 14.452 21.9564 13.6211 21.9563V21.9562ZM21.2241 21.3544C21.2361 25.1537 19.2161 28.6696 15.9278 30.5727C12.6395 32.4758 8.58466 32.4758 5.29636 30.5727C2.00806 28.6696 -0.0119325 25.1537 5.30418e-05 21.3544C0.0509014 19.82 0.401882 18.3105 1.03321 16.9111C2.8887 13.0194 10.5318 0 10.5318 0C10.5318 0 18.877 13.9521 20.3514 17.1217L20.3615 17.1417C20.9331 18.4725 21.2267 19.9061 21.2241 21.3545V21.3544ZM19.2883 21.3544C19.2879 20.1785 19.0491 19.0149 18.5861 17.934C17.4427 15.4666 12.5379 7.15148 10.5519 3.81145C8.68621 7.01131 4.2228 14.7346 2.78843 17.7436C2.27937 18.8788 1.99333 20.1013 1.94589 21.3445C1.94314 26.1335 5.82313 30.0179 10.6121 30.0207C15.401 30.0234 19.2855 26.1434 19.2883 21.3545V21.3544Z" fill="black"/>
</svg>
